<?xml version="1.0" standalone="no"?>
<!DOCTYPE svg PUBLIC "-//W3C//DTD SVG 20010904//EN"
 "http://www.w3.org/TR/2001/REC-SVG-20010904/DTD/svg10.dtd">
<svg version="1.0" xmlns="http://www.w3.org/2000/svg"
 width="300.000000pt" height="300.000000pt" viewBox="0 0 300.000000 300.000000"
 preserveAspectRatio="xMidYMid meet">
<metadata>
Created by potrace 1.14, written by Peter Selinger 2001-2017
</metadata>
<g transform="translate(0.000000,300.000000) scale(0.100000,-0.100000)"
fill="#000000" stroke="none">
<path d="M1405 2906 c-226 -56 -369 -294 -311 -514 l14 -53 -119 -60 -120 -60
-27 32 c-77 92 -161 142 -271 161 -292 50 -553 -233 -477 -517 47 -176 198
-307 372 -322 73 -6 160 8 208 32 15 8 29 15 31 15 6 0 78 -116 78 -125 0 -6
-17 -36 -38 -68 -28 -43 -43 -56 -54 -51 -95 40 -182 52 -266 34 -236 -49
-392 -290 -331 -515 73 -274 376 -406 619 -270 47 27 147 119 147 136 0 5 56
-19 123 -53 l124 -61 -14 -56 c-46 -196 49 -389 234 -478 353 -170 727 201
562 557 -17 39 -38 75 -46 82 -12 9 22 48 188 214 179 179 205 202 219 189 8
-8 45 -28 82 -45 289 -135 619 97 595 418 -18 244 -254 427 -492 383 -66 -12
-177 -60 -191 -82 -4 -7 -85 67 -210 192 -177 177 -202 205 -190 219 8 8 25
38 40 65 162 316 -133 687 -479 601z m252 -71 c77 -34 154 -112 190 -189 24
-53 28 -73 28 -151 0 -80 -3 -97 -31 -155 -39 -83 -101 -145 -184 -184 -58
-28 -75 -31 -155 -31 -78 0 -98 4 -150 28 -79 37 -156 114 -192 191 -24 52
-28 74 -28 151 0 78 4 98 28 150 48 103 149 188 254 215 65 16 176 5 240 -25z
m-435 -653 c16 -12 7 -29 -104 -195 -66 -100 -123 -184 -125 -186 -2 -3 -23 5
-47 16 l-43 22 13 52 c17 64 17 147 0 209 l-12 45 120 61 119 61 31 -36 c17
-20 39 -42 48 -49z m944 -432 c-24 -27 -59 -104 -71 -155 l-11 -50 -74 -3
c-77 -3 -90 3 -90 43 0 11 -15 52 -34 90 -131 272 -480 326 -689 106 l-58 -60
-34 16 c-19 9 -35 20 -35 25 0 7 212 331 229 351 4 4 29 -2 55 -14 65 -28 175
-36 251 -16 60 15 149 59 161 79 4 6 98 -81 210 -193 177 -177 202 -205 190
-219z m-509 85 c77 -34 154 -112 190 -189 24 -53 28 -73 28 -151 0 -80 -3 -97
-31 -155 -39 -83 -101 -145 -184 -184 -58 -28 -75 -31 -155 -31 -78 0 -98 4
-150 28 -79 37 -156 114 -192 191 -24 52 -28 74 -28 151 0 78 4 98 28 150 48
103 149 188 254 215 65 16 176 5 240 -25z m1000 0 c77 -34 154 -112 190 -189
24 -53 28 -73 28 -151 0 -80 -3 -97 -31 -155 -39 -83 -101 -145 -184 -184 -58
-28 -75 -31 -155 -31 -78 0 -98 4 -150 28 -79 37 -156 114 -192 191 -24 52
-28 74 -28 151 0 78 4 98 28 150 48 103 149 188 254 215 65 16 176 5 240 -25z
m-1717 -111 c0 -3 -23 -39 -51 -80 l-51 -76 -32 48 -32 48 43 45 c24 24 43 48
43 53 0 5 18 -1 40 -12 22 -11 40 -23 40 -26z m123 -55 l44 -21 -13 -57 c-18
-72 -17 -133 0 -199 l14 -53 -44 -21 c-24 -12 -45 -20 -47 -17 -24 27 -128
192 -125 198 4 11 122 191 125 191 1 0 22 -10 46 -21z m1027 -261 c14 -57 63
-162 81 -174 7 -4 -67 -85 -192 -210 -177 -177 -205 -202 -219 -190 -32 29
-120 66 -185 77 -75 14 -181 2 -237 -27 -17 -9 -34 -12 -38 -7 -13 14 -230
342 -230 348 0 2 18 14 40 25 22 11 40 17 40 12 0 -23 112 -118 177 -149 244
-117 536 28 593 295 l12 52 73 0 73 0 12 -52z m-1200 -63 c27 -41 50 -78 50
-83 0 -4 -16 -16 -36 -25 l-35 -17 -27 32 c-15 18 -37 41 -49 51 l-22 19 32
49 c18 27 33 49 34 49 1 0 25 -34 53 -75z m226 -338 l122 -183 -50 -52 -49
-52 -118 60 -118 59 13 53 c17 63 17 146 0 208 l-11 45 40 22 c22 12 42 22 45
22 3 0 60 -82 126 -182z m541 -172 c77 -34 154 -112 190 -189 24 -53 28 -73
28 -151 0 -80 -3 -97 -31 -155 -39 -83 -101 -145 -184 -184 -58 -28 -75 -31
-155 -31 -78 0 -98 4 -150 28 -79 37 -156 114 -192 191 -24 52 -28 74 -28 151
0 78 4 98 28 150 48 103 149 188 254 215 65 16 176 5 240 -25z"/>
</g>
</svg>
